# xmcd
#
# Track frame offsets: 
#        150
#        14450
#        29050
#        43650
#        56800
#        72775
#        89575
#        104700
#        117825
#        131400
#        144800
#        157925
#        172275
#        187400
#        204250
#        219475
#
# Disc length: 3090 seconds
#
# Revision: 4
# Processed by: cddbd v1.5.2PL0 Copyright (c) Steve Scherf et al.
# Submitted via: ExactAudioCopyFreeDBPlugin 1.0
#
DISCID=f20c1010
DTITLE=Truck Stop - Trucker bleibt Trucker
DYEAR=1998
DGENRE=Country
TTITLE0=Die Lady und der Tramp
TTITLE1=Louisiana Ladies
TTITLE2=Der Traum vom grossen Abenteuer
TTITLE3=Die beste aller Frauen
TTITLE4=Freunde bleiben
TTITLE5=Es ist nicht wahr
TTITLE6=Herz aus Gold
TTITLE7=Trucker, Cowboy, Mann
TTITLE8=Oh, Mann du weisst doch
TTITLE9=Willst du 'nen Kerl oder'n Adonis
TTITLE10=Ich würd' so gern mal wieder sündigen
TTITLE11=Highways
TTITLE12=Trucker bleibt Trucker
TTITLE13=In der Hitze der Nacht
TTITLE14=Banditos der Liebe
TTITLE15=Mann, so ein flotter Käfer
EXTD=YEAR: 1998
EXTT0=
EXTT1=
EXTT2=
EXTT3=
EXTT4=
EXTT5=
EXTT6=
EXTT7=
EXTT8=
EXTT9=
EXTT10=
EXTT11=
EXTT12=
EXTT13=
EXTT14=
EXTT15=
PLAYORDER=
